<?xml version="1.0" standalone="no"?>
<!DOCTYPE svg PUBLIC "-//W3C//DTD SVG 20010904//EN"
 "http://www.w3.org/TR/2001/REC-SVG-20010904/DTD/svg10.dtd">
<svg version="1.0" xmlns="http://www.w3.org/2000/svg"
 width="500.000000pt" height="500.000000pt" viewBox="0 0 500.000000 500.000000"
 preserveAspectRatio="xMidYMid meet">

<g transform="translate(0.000000,500.000000) scale(0.100000,-0.100000)"
fill="#000000" stroke="none">
<path d="M1207 4354 c-13 -13 -8 -429 5 -442 16 -16 73 -15 87 2 8 9 11 78 9
227 l-3 214 -45 3 c-25 2 -49 0 -53 -4z"/>
<path d="M1637 4353 c-13 -12 -8 -180 6 -190 12 -10 44 -10 54 1 7 6 11 154 5
179 -4 17 -51 25 -65 10z"/>
<path d="M2744 4347 c-2 -7 -3 -109 -2 -227 l3 -215 40 0 40 0 3 55 c6 100 32
105 85 16 21 -36 45 -67 53 -70 23 -9 82 -7 88 2 3 5 -24 53 -60 107 l-65 98
55 56 c31 31 56 60 56 64 0 4 -22 7 -49 7 -47 0 -51 -2 -96 -55 -27 -30 -52
-55 -56 -55 -5 0 -9 52 -9 115 l0 115 -40 0 c-24 0 -43 -5 -46 -13z"/>
<path d="M1420 4303 c0 -52 -11 -73 -37 -73 -21 0 -24 -4 -21 -27 2 -20 9 -29
25 -31 29 -4 32 -17 31 -136 -1 -92 0 -100 22 -118 18 -14 36 -18 74 -16 49 3
51 4 51 33 0 22 -5 31 -20 33 -11 2 -23 7 -28 11 -6 6 -11 108 -8 172 1 10 13
19 31 23 24 4 30 11 30 31 0 20 -5 25 -25 25 -28 0 -36 12 -38 62 -2 31 -4 33
-44 36 -41 3 -43 2 -43 -25z"/>
<path d="M1869 4234 c-54 -16 -68 -30 -75 -76 -9 -52 21 -82 103 -103 98 -26
127 -57 82 -88 -26 -19 -85 -7 -106 22 -9 14 -25 21 -48 21 -43 0 -47 -8 -28
-47 19 -40 74 -63 149 -63 88 0 144 41 144 105 0 58 -36 84 -156 115 -48 12
-64 38 -37 58 24 17 74 8 92 -18 15 -22 75 -28 86 -10 9 14 -19 56 -48 74 -34
21 -106 26 -158 10z"/>
<path d="M2449 4241 c-124 -40 -160 -208 -65 -302 75 -75 232 -43 271 54 34
85 3 194 -65 228 -43 22 -106 31 -141 20z m78 -67 c43 -12 68 -111 42 -167
-20 -45 -78 -59 -115 -29 -48 39 -48 138 0 179 29 24 38 26 73 17z"/>
<path d="M3190 4240 c-39 -9 -93 -63 -88 -88 4 -23 76 -17 97 8 25 30 63 34
92 11 42 -35 6 -64 -93 -76 -46 -5 -72 -18 -92 -47 -31 -43 -14 -117 31 -137
32 -15 105 -14 138 1 21 9 31 9 46 0 10 -7 32 -12 49 -12 l30 0 0 133 c0 143
-8 174 -50 193 -35 16 -119 23 -160 14z m120 -208 c0 -45 -26 -72 -69 -72 -42
0 -61 14 -61 45 0 23 27 41 70 48 56 9 60 8 60 -21z"/>
<path d="M3440 4225 c0 -9 25 -80 55 -159 30 -78 55 -152 55 -164 0 -26 -16
-36 -55 -37 -28 0 -30 -3 -30 -35 0 -34 1 -35 44 -38 56 -4 95 12 111 46 28
58 147 387 143 395 -2 4 -22 7 -43 7 l-38 0 -34 -101 c-18 -55 -38 -100 -43
-100 -5 0 -23 39 -40 88 -16 49 -34 94 -38 101 -12 18 -87 16 -87 -3z"/>
<path d="M3764 3987 c-9 -25 0 -82 14 -83 29 -3 32 -4 32 -13 0 -5 -12 -24
-26 -41 -34 -40 -21 -59 25 -36 43 23 63 66 59 129 l-3 52 -48 3 c-34 2 -49
-1 -53 -11z"/>
<path d="M855 3848 c-3 -8 -4 -110 -3 -228 l3 -215 50 0 50 0 0 225 0 225 -48
3 c-32 2 -49 -1 -52 -10z"/>
<path d="M1065 3847 c-3 -7 -5 -54 -3 -103 l3 -89 30 0 30 0 0 100 0 100 -28
3 c-16 2 -29 -2 -32 -11z"/>
<path d="M1924 3817 c-2 -7 -3 -109 -2 -227 l3 -215 34 -3 c24 -3 37 1 44 13
8 14 11 15 31 1 69 -44 162 -22 195 47 28 60 34 107 21 158 -28 103 -103 143
-197 104 -19 -8 -37 -15 -39 -15 -2 0 -4 34 -4 75 l0 75 -40 0 c-24 0 -43 -5
-46 -13z m215 -196 c23 -23 36 -80 27 -117 -9 -33 -50 -74 -75 -74 -11 0 -32
10 -47 23 -37 32 -44 108 -15 155 17 26 27 32 56 32 21 0 43 -8 54 -19z"/>
<path d="M2720 3790 c-7 -4 -11 -20 -10 -36 3 -49 1 -54 -25 -54 -21 0 -25 -5
-25 -29 0 -25 4 -30 27 -33 l28 -3 -3 -100 c-2 -122 7 -151 57 -165 52 -14 88
-12 95 6 13 34 6 51 -23 57 -34 7 -41 26 -41 117 0 75 5 87 40 91 19 3 25 10
25 29 0 20 -6 26 -27 28 -28 3 -34 13 -40 72 -3 21 -9 25 -35 26 -17 1 -37 -2
-43 -6z"/>
<path d="M1242 3732 c-9 -3 -12 -48 -12 -168 l0 -165 43 3 42 3 2 109 c2 124
15 156 62 156 16 0 33 -6 39 -13 7 -7 13 -66 14 -133 l3 -119 41 -3 41 -3 5
122 c5 133 12 149 69 149 44 0 53 -22 55 -134 1 -146 -2 -136 44 -136 31 0 40
4 41 18 0 9 0 71 0 136 -1 129 -10 159 -57 176 -49 19 -144 4 -144 -22 0 -14
-21 -9 -47 12 -32 25 -94 26 -134 3 -21 -12 -32 -14 -37 -7 -8 12 -51 23 -70
16z"/>
<path d="M2390 3703 c-30 -11 -70 -57 -70 -80 0 -20 5 -23 38 -23 31 0 41 5
52 25 11 21 21 25 56 25 38 0 44 -3 50 -26 4 -14 2 -30 -5 -37 -11 -11 -18
-13 -86 -23 -90 -13 -134 -58 -120 -122 14 -67 91 -97 175 -68 30 10 48 12 56
5 7 -6 27 -9 46 -7 l32 3 -3 135 c-1 74 -7 143 -12 152 -5 10 -22 24 -37 31
-27 14 -144 21 -172 10z m130 -204 c0 -41 -15 -65 -45 -73 -40 -10 -74 3 -81
31 -10 39 20 57 119 72 4 1 7 -13 7 -30z"/>
<path d="M2940 3701 l-25 -7 0 -159 0 -160 42 -3 41 -3 4 114 c3 125 16 157
64 157 45 0 54 -23 54 -138 0 -59 4 -113 9 -120 5 -8 22 -12 42 -10 l34 3 5
116 c3 77 10 122 19 133 28 33 100 11 101 -32 1 -9 2 -62 3 -117 l2 -100 43
-3 42 -3 0 131 c0 136 -6 162 -44 192 -31 26 -116 24 -150 -3 l-26 -20 -29 20
c-35 25 -107 28 -139 5 -20 -14 -24 -14 -38 0 -17 17 -17 17 -54 7z"/>
<path d="M3552 3693 c-34 -16 -68 -66 -57 -83 3 -6 22 -10 40 -10 26 0 39 6
51 25 28 43 114 31 114 -17 0 -23 -23 -34 -90 -43 -92 -12 -130 -41 -130 -100
0 -86 84 -127 181 -89 31 13 43 14 49 5 4 -7 23 -11 45 -9 l38 3 -2 135 c-1
74 -7 143 -13 153 -24 45 -159 63 -226 30z m148 -201 c0 -42 -39 -75 -80 -68
-89 14 -52 95 43 96 34 0 37 -2 37 -28z"/>
<path d="M3873 3703 c-10 -3 -13 -47 -13 -169 l0 -165 43 3 42 3 5 118 c5 130
14 147 71 147 50 0 57 -20 58 -168 l1 -103 43 3 42 3 3 115 c4 137 -7 184 -48
205 -39 20 -105 19 -141 -2 -26 -16 -31 -16 -39 -3 -9 15 -44 22 -67 13z"/>
<path d="M2749 3008 c-17 -14 -49 -63 -49 -75 0 -4 7 2 15 13 14 19 14 19 15
-1 0 -39 -12 -65 -31 -65 -10 0 -22 -7 -26 -15 -11 -19 -343 -27 -343 -8 0 24
-62 144 -77 150 -19 8 -35 -9 -36 -40 -1 -14 -5 -23 -9 -20 -5 2 -8 -1 -8 -6
0 -6 3 -11 8 -11 4 0 7 -29 7 -64 0 -60 3 -68 33 -99 29 -30 33 -41 31 -78 -1
-24 -8 -60 -15 -80 -9 -28 -10 -40 -1 -49 9 -10 8 -12 -4 -7 -10 3 -30 -6 -48
-21 l-32 -27 29 -57 c16 -32 28 -58 26 -58 -12 0 -49 49 -46 60 3 7 0 10 -5 7
-10 -6 -8 225 2 251 3 7 7 59 10 115 5 122 -6 90 -30 -88 -30 -225 -30 -567 0
-638 6 -14 1 -18 -24 -23 -17 -4 -31 -10 -31 -15 0 -5 7 -5 17 -2 11 4 14 3 9
-5 -5 -8 4 -12 30 -12 21 0 34 -3 30 -7 -4 -5 -11 -8 -14 -9 -96 -8 -232 -89
-370 -221 -56 -54 -71 -74 -66 -89 5 -16 4 -16 -5 -4 -10 13 -15 8 -12 -12 0
-5 -3 -8 -8 -8 -5 0 -24 -23 -42 -51 -27 -42 -30 -53 -18 -61 11 -8 11 -9 -3
-4 -20 6 -34 -10 -16 -17 8 -3 5 -6 -6 -6 -15 -1 -16 -4 -6 -16 11 -13 10 -14
-5 -9 -13 5 -16 4 -11 -4 4 -7 2 -12 -4 -12 -7 0 -9 -7 -6 -16 3 -8 2 -12 -4
-9 -6 3 -10 1 -10 -5 0 -6 -9 -31 -20 -56 -12 -24 -18 -50 -14 -56 5 -7 3 -8
-6 -3 -8 5 -11 3 -8 -6 3 -8 -1 -20 -8 -27 -7 -7 -11 -22 -9 -34 3 -12 -2 -29
-11 -39 -8 -9 -14 -20 -12 -25 1 -5 -3 -25 -9 -44 -22 -69 -37 -300 -20 -300
5 0 4 -7 -4 -16 -10 -13 -10 -17 2 -25 8 -5 9 -9 3 -9 -7 0 -14 -12 -17 -26
-3 -20 -1 -24 12 -20 14 5 14 5 1 -6 -16 -13 -21 -61 -8 -74 4 -4 3 -13 -3
-21 -9 -10 -8 -13 1 -13 9 0 9 -4 3 -12 -11 -14 -13 -48 -4 -48 3 0 7 -25 8
-56 1 -58 16 -82 40 -63 6 6 9 17 6 25 -3 8 -1 14 4 14 5 0 31 44 56 98 49
103 79 138 131 153 55 16 81 -4 167 -133 44 -66 85 -118 91 -116 5 2 26 45 45
96 34 88 54 117 47 70 -2 -13 -5 -42 -8 -66 l-4 -42 216 3 c194 3 217 5 220
20 5 24 58 23 65 -2 4 -17 19 -18 221 -20 l217 -2 -7 68 c-3 38 -4 66 -1 63 3
-3 28 -40 56 -83 28 -43 56 -75 61 -72 6 4 33 51 60 105 56 112 86 140 149
140 88 0 158 -53 246 -186 31 -47 61 -83 68 -81 14 4 16 52 5 112 -4 22 -10
69 -14 105 -3 36 -9 67 -13 70 -4 3 -6 15 -5 27 1 16 -3 20 -15 15 -13 -5 -14
-3 -5 9 13 16 9 51 -11 91 -9 19 -10 26 -2 21 7 -3 3 3 -7 15 -14 16 -15 22
-6 22 11 0 11 3 2 12 -7 7 -12 22 -12 34 0 13 -7 30 -16 38 -8 9 -11 16 -6 16
5 0 7 11 4 25 -2 14 -8 25 -13 25 -5 0 -6 7 -3 15 3 8 -4 31 -17 52 -13 20
-17 33 -11 29 7 -4 12 -2 12 3 0 6 -5 11 -12 11 -6 0 -8 3 -5 7 4 3 -1 15 -10
26 -10 11 -12 17 -5 13 17 -10 15 -2 -8 45 -12 22 -18 44 -15 49 3 5 1 11 -5
15 -5 3 -10 15 -10 26 0 11 -4 18 -8 15 -5 -3 -9 11 -10 30 -2 43 -11 61 -23
43 -6 -10 -8 -7 -6 8 0 12 5 19 9 17 4 -3 5 2 2 10 -3 9 -10 13 -15 10 -5 -3
-6 1 -3 9 3 8 -7 36 -22 63 -15 27 -33 58 -38 69 -39 70 -91 136 -101 127 -5
-4 -6 0 -2 10 6 18 -25 53 -37 41 -4 -5 -6 -1 -4 7 2 8 -4 15 -12 15 -17 1
-60 24 -44 25 5 0 15 -5 22 -12 8 -8 12 -8 12 -1 0 6 -16 25 -36 43 -26 23
-39 28 -44 20 -6 -9 -10 -7 -14 7 -9 28 -79 47 -142 38 -27 -3 -69 -5 -94 -4
-25 1 -55 2 -67 2 -13 -1 -20 3 -17 8 7 12 50 11 92 0 30 -9 33 -7 49 22 51
94 3 714 -67 875 -21 47 -21 47 -41 30z m38 -150 c-2 -13 -4 -5 -4 17 -1 22 1
32 4 23 2 -10 2 -28 0 -40z m39 -188 c22 -166 21 -201 -2 -241 -20 -34 -81
-72 -98 -61 -5 3 -6 -3 -2 -13 5 -15 4 -16 -9 -5 -9 7 -19 10 -23 6 -4 -4 1
-12 11 -17 16 -9 16 -11 -1 -28 -20 -22 -82 -18 -82 6 0 7 -9 32 -21 54 -19
38 -19 40 -2 37 11 -2 18 -13 19 -26 1 -12 3 -24 5 -25 46 -26 46 -26 59 -2 9
18 25 26 56 31 54 8 69 19 89 68 l16 39 -43 -6 -43 -6 43 16 c36 12 41 17 31
30 -25 29 -47 34 -85 18 -43 -18 -44 -18 -44 -6 0 5 8 11 18 13 13 3 12 5 -6
10 -13 4 -21 4 -18 1 8 -8 -13 -43 -25 -43 -6 0 -8 7 -5 16 3 8 2 12 -3 9 -5
-3 -13 0 -17 6 -5 8 -3 9 6 4 10 -6 12 -3 8 12 -3 12 -1 27 4 34 7 12 9 11 7
-1 -3 -29 1 -41 11 -35 6 4 8 10 5 15 -3 5 0 12 6 16 7 4 9 3 5 -4 -3 -6 4
-14 16 -18 24 -7 88 -12 88 -6 0 2 -9 16 -19 31 -11 15 -24 51 -29 81 -10 52
-9 55 19 81 24 23 29 36 31 81 l2 53 3 -50 c2 -27 10 -106 19 -175z m-286 69
c0 -5 6 -7 13 -4 6 4 2 -2 -10 -13 -12 -11 -20 -22 -17 -25 3 -3 0 -8 -7 -13
-8 -4 -10 -3 -5 4 4 7 1 12 -9 12 -10 0 -15 6 -12 13 3 7 -3 13 -14 13 -13 0
-15 -3 -7 -13 7 -9 7 -13 0 -13 -17 0 -25 20 -14 33 13 15 82 21 82 6z m-39
-165 c-5 -35 -9 -46 -10 -28 -1 34 9 97 15 91 2 -2 0 -30 -5 -63z m96 -19 c21
-11 21 -11 1 -24 -16 -10 -19 -10 -13 1 3 7 0 5 -8 -4 -19 -24 -27 -13 -27 41
0 43 1 45 13 21 7 -13 22 -29 34 -35z m-20 33 c-3 -8 -6 -5 -6 6 -1 11 2 17 5
13 3 -3 4 -12 1 -19z m-60 -35 c-3 -10 -5 -4 -5 12 0 17 2 24 5 18 2 -7 2 -21
0 -30z m202 -62 c19 -12 21 -48 4 -63 -11 -8 -12 -7 -7 6 6 16 -1 16 -71 10
-86 -8 -97 5 -23 25 24 6 50 15 58 21 18 12 21 12 39 1z m-350 -13 c20 -7 38
-16 41 -19 3 -4 14 -9 25 -12 11 -2 -10 -5 -47 -6 -67 -1 -85 7 -74 34 7 18
10 18 55 3z m153 -70 c2 -20 0 -34 -4 -32 -4 3 -7 26 -7 52 1 49 5 42 11 -20z
m-37 42 c-3 -5 -12 -10 -18 -10 -7 0 -6 4 3 10 19 12 23 12 15 0z m-126 -56
c3 -4 -2 -4 -12 -1 -10 4 -30 7 -43 7 -14 0 -23 4 -19 9 5 10 62 -2 74 -15z
m96 -13 c-7 -22 -12 -41 -10 -43 2 -1 -4 -10 -13 -18 -14 -13 -15 -12 -9 2 3
9 11 35 17 57 6 23 15 41 20 41 5 0 3 -18 -5 -39z m215 -12 c0 -11 -5 -17 -10
-14 -6 4 -7 12 -3 18 4 8 1 7 -9 -1 -15 -12 -34 -2 -21 12 15 15 43 5 43 -15z
m-170 -63 c0 -3 -4 -8 -10 -11 -5 -3 -10 -1 -10 4 0 6 5 11 10 11 6 0 10 -2
10 -4z m-42 -13 c-10 -2 -26 -2 -35 0 -10 3 -2 5 17 5 19 0 27 -2 18 -5z m254
-83 c-2 -25 -8 -50 -14 -57 -8 -10 -56 -13 -182 -13 -108 0 -166 4 -156 9 8 6
19 7 25 3 5 -3 4 2 -4 11 -15 19 -26 23 -15 5 4 -7 3 -8 -4 -4 -19 11 -15 49
4 42 8 -3 12 -2 9 4 -10 16 63 15 80 -1 12 -12 25 -12 25 0 0 5 -19 18 -42 30
-24 12 -37 21 -30 21 7 0 30 -9 51 -19 22 -12 42 -16 47 -11 15 15 147 37 179
30 29 -6 30 -8 27 -50z m-342 36 c0 -2 -8 -10 -17 -17 -16 -13 -17 -12 -4 4
13 16 21 21 21 13z m-60 -126 c0 -12 -7 -20 -17 -20 -15 0 -16 2 -3 10 8 5 11
10 7 10 -5 0 -5 5 -2 10 10 16 15 12 15 -10z m-100 -54 c0 -2 -7 -7 -16 -10
-8 -3 -12 -2 -9 4 6 10 25 14 25 6z m420 -25 c0 -6 -4 -13 -10 -16 -5 -3 -10
1 -10 9 0 9 5 16 10 16 6 0 10 -4 10 -9z m385 -9 c-3 -3 -11 0 -18 7 -9 10 -8
11 6 5 10 -3 15 -9 12 -12z m-545 -2 c0 -5 -5 -10 -11 -10 -5 0 -7 5 -4 10 3
6 8 10 11 10 2 0 4 -4 4 -10z m40 0 c0 -5 -2 -10 -4 -10 -3 0 -8 5 -11 10 -3
6 -1 10 4 10 6 0 11 -4 11 -10z m44 2 c3 -5 -1 -9 -9 -9 -8 0 -15 4 -15 9 0 4
4 8 9 8 6 0 12 -4 15 -8z m111 -2 c3 -5 2 -10 -4 -10 -5 0 -13 5 -16 10 -3 6
-2 10 4 10 5 0 13 -4 16 -10z m-325 -10 c0 -5 -5 -10 -11 -10 -5 0 -7 5 -4 10
3 6 8 10 11 10 2 0 4 -4 4 -10z m40 6 c0 -3 -4 -8 -10 -11 -5 -3 -10 -1 -10 4
0 6 5 11 10 11 6 0 10 -2 10 -4z m-138 -28 c-7 -7 -12 -8 -12 -2 0 6 3 14 7
17 3 4 9 5 12 2 2 -3 -1 -11 -7 -17z m609 -55 c6 -16 13 -42 16 -60 5 -31 6
-32 32 -19 17 8 38 10 61 5 l35 -7 -24 19 c-13 10 -19 19 -14 19 13 0 51 -41
55 -60 2 -8 -3 -14 -11 -15 -8 0 -16 -7 -18 -15 -4 -12 -3 -13 5 -1 7 10 30
-28 86 -143 42 -87 76 -161 76 -167 0 -5 4 -9 9 -9 4 0 7 -11 6 -25 -2 -14 0
-23 4 -20 7 4 31 -81 31 -111 0 -8 -9 -13 -22 -13 -22 1 -74 -5 -143 -16 l-30
-5 28 11 c15 6 27 15 27 20 0 6 -4 7 -10 4 -12 -8 -23 34 -18 71 4 26 5 25 12
-13 5 -23 15 -44 22 -47 11 -4 12 -1 6 12 -5 9 -9 42 -10 72 -2 64 3 59 22
-30 8 -36 14 -54 15 -40 0 14 -4 44 -9 67 -9 37 -7 46 10 63 20 20 18 42 -6
70 -8 9 -31 47 -52 85 -21 39 -44 69 -50 68 -16 -4 -15 14 0 19 7 3 5 7 -6 11
-9 4 -15 3 -11 -2 3 -5 1 -12 -4 -15 -12 -8 -53 49 -43 59 4 5 1 5 -5 1 -7 -4
-13 -2 -13 4 0 6 -5 8 -11 4 -13 -8 -12 -16 40 -294 22 -118 42 -236 44 -261
l4 -47 -55 -6 c-29 -4 -240 -6 -468 -6 -358 1 -416 3 -421 16 -3 8 9 94 27
192 37 199 46 249 55 307 20 119 47 225 60 225 2 0 1 -10 -4 -22 -4 -13 -16
-65 -26 -117 -14 -72 -15 -98 -7 -112 8 -12 8 -20 2 -24 -6 -4 -10 -3 -9 2 1
4 0 13 -1 18 -1 6 -13 -44 -26 -110 -13 -66 -22 -130 -19 -142 3 -13 1 -23 -3
-23 -5 0 -15 -35 -22 -77 -8 -43 -15 -86 -17 -95 -1 -10 2 -18 7 -18 6 0 11
12 11 28 2 23 2 24 6 5 l4 -23 434 0 433 0 4 32 c3 18 -1 60 -9 93 -8 33 -16
81 -18 106 -2 25 -10 79 -19 120 -8 41 -17 88 -20 104 -3 17 -8 41 -11 55 -2
14 -7 36 -9 50 -18 98 -26 124 -47 146 -17 19 -30 24 -49 19 -19 -4 -21 -3
-10 5 11 7 2 10 -35 11 -70 1 -21 17 58 18 54 1 58 -1 68 -26z m-318 -50 c-13
-2 -35 -2 -50 0 -16 2 -5 4 22 4 28 0 40 -2 28 -4z m-95 -10 c-10 -2 -26 -2
-35 0 -10 3 -2 5 17 5 19 0 27 -2 18 -5z m180 0 c-10 -2 -26 -2 -35 0 -10 3
-2 5 17 5 19 0 27 -2 18 -5z m-281 -23 c-100 -39 -154 -103 -142 -166 27 -146
323 -217 512 -124 166 82 158 211 -17 289 -25 11 -39 20 -32 20 7 1 26 -6 43
-14 16 -9 35 -13 41 -9 6 4 8 3 4 -4 -3 -6 3 -13 14 -17 11 -3 29 -19 40 -35
13 -18 26 -27 35 -23 8 3 15 0 15 -7 0 -6 -4 -9 -9 -6 -4 3 -6 -6 -3 -19 2
-14 8 -23 12 -20 5 3 7 -3 5 -12 -1 -10 3 -25 9 -33 10 -13 9 -13 -8 0 -18 14
-19 13 -13 -3 4 -11 3 -16 -3 -12 -6 3 -10 2 -10 -2 0 -5 -15 -24 -34 -43 -19
-19 -32 -39 -28 -45 3 -5 2 -7 -2 -3 -4 3 -31 -4 -59 -17 -120 -53 -249 -57
-371 -11 -35 14 -68 21 -72 18 -4 -4 -4 -2 0 5 8 14 -33 45 -47 36 -6 -3 -7
-2 -4 4 9 14 -22 55 -36 46 -7 -4 -6 0 2 10 7 9 9 17 3 17 -15 0 5 78 29 111
20 28 129 89 158 89 9 -1 -6 -9 -32 -20z m476 -5 c-3 -8 -10 -15 -15 -15 -7 0
-6 5 1 13 6 8 7 18 3 22 -4 5 -2 5 5 1 7 -4 10 -13 6 -21z m-36 0 c0 -8 -4
-12 -9 -9 -5 3 -6 10 -3 15 9 13 12 11 12 -6z m-79 -29 c73 -34 102 -65 102
-112 0 -71 -85 -127 -222 -145 -136 -19 -276 15 -331 80 -60 72 -21 139 112
193 37 15 68 18 161 15 102 -2 122 -6 178 -31z m134 12 c-7 -7 -12 -8 -12 -2
0 14 12 26 19 19 2 -3 -1 -11 -7 -17z m-699 -30 c-6 -7 -13 -25 -17 -40 -3
-15 -16 -33 -29 -39 -22 -12 -22 -12 -3 10 11 11 16 24 12 28 -3 4 -14 -3 -22
-16 -11 -15 -23 -21 -35 -18 -13 4 -19 0 -19 -11 0 -10 -3 -13 -10 -6 -11 11
-2 54 11 54 5 0 9 -5 9 -12 0 -6 7 -3 16 8 15 18 15 18 10 0 -6 -16 -4 -17 9
-6 8 7 13 16 10 20 -3 4 3 14 13 21 15 13 16 12 3 -3 -8 -11 -9 -18 -3 -18 6
0 16 9 22 20 6 11 16 20 22 20 7 0 7 -4 1 -12z m711 -17 c-2 -3 -12 3 -22 13
-16 17 -16 18 5 5 12 -7 20 -15 17 -18z m-666 -24 c-6 -17 -13 -34 -15 -37 -4
-4 3 48 7 60 1 3 2 9 1 13 -1 5 3 6 8 3 6 -4 6 -18 -1 -39z m877 3 c9 -16 13
-30 11 -30 -3 0 -12 14 -21 30 -9 17 -13 30 -11 30 3 0 12 -13 21 -30z m-92
-71 c40 -56 52 -80 45 -90 -7 -11 -8 -9 -4 5 5 14 2 17 -9 12 -10 -3 -13 -2
-9 5 7 12 -21 41 -48 52 -10 3 -18 11 -18 17 0 6 5 8 10 5 17 -11 11 11 -10
35 -11 13 -20 28 -20 33 0 13 -1 14 63 -74z m-1183 41 c0 -5 -2 -10 -4 -10 -3
0 -8 5 -11 10 -3 6 -1 10 4 10 6 0 11 -4 11 -10z m297 -62 c-47 -34 -76 -94
-80 -165 0 -13 -6 -23 -13 -23 -22 0 -44 12 -38 21 3 5 11 6 17 2 7 -4 5 2 -3
12 -14 17 -13 18 4 12 17 -7 17 -6 5 10 -9 11 -10 14 -1 9 8 -5 12 -1 12 12 0
22 81 137 102 144 24 9 21 -15 -5 -34z m80 20 c-3 -8 -6 -5 -6 6 -1 11 2 17 5
13 3 -3 4 -12 1 -19z m-167 -17 c-6 -12 -9 -25 -6 -30 3 -4 -6 -19 -19 -31
-29 -27 -75 -120 -74 -147 0 -16 1 -16 8 1 5 14 10 16 15 7 4 -6 5 -19 2 -27
-3 -9 -1 -12 4 -9 6 3 10 13 10 22 0 11 6 14 23 9 12 -3 27 -6 33 -6 7 0 11
-22 10 -59 -1 -32 -4 -57 -8 -54 -11 6 -10 -15 2 -38 12 -22 13 -22 -65 -5
-33 7 -72 9 -87 5 -29 -8 -38 4 -14 18 7 4 21 42 31 83 10 41 30 98 45 125 49
91 94 164 98 161 2 -3 -1 -14 -8 -25z m1114 -11 c-6 -6 -10 -3 -10 10 0 13 4
16 10 10 7 -7 7 -13 0 -20z m-940 -48 c3 -5 -1 -9 -9 -9 -8 0 -12 4 -9 9 3 4
7 8 9 8 2 0 6 -4 9 -8z m716 -25 c0 -7 -4 -6 -10 3 -8 12 -10 12 -10 1 0 -8
-3 -12 -6 -8 -9 9 6 28 17 22 5 -4 9 -12 9 -18z m166 -54 c5 -33 10 -40 23
-36 14 4 14 3 1 -6 -23 -16 -50 -13 -51 7 0 9 -2 26 -5 37 -2 11 -1 31 2 44 7
33 21 12 30 -46z m-875 44 c-6 -8 -7 -18 -3 -22 4 -5 1 -5 -6 -1 -10 6 -10 11
-1 22 6 8 14 14 16 14 3 0 0 -6 -6 -13z m989 -31 c0 -26 -6 -18 -14 19 -5 22
-4 26 4 15 5 -8 10 -24 10 -34z m-1023 -3 c-3 -10 -5 -4 -5 12 0 17 2 24 5 18
2 -7 2 -21 0 -30z m520 -39 c-3 -3 -12 -4 -19 -1 -8 3 -5 6 6 6 11 1 17 -2 13
-5z m-534 -29 c-3 -9 -8 -14 -10 -11 -3 3 -2 9 2 15 9 16 15 13 8 -4z m782
-33 c-3 -3 -11 0 -18 7 -9 10 -8 11 6 5 10 -3 15 -9 12 -12z m-791 -5 c-3 -10
3 -13 23 -11 15 1 83 2 151 3 68 1 121 4 119 9 -3 4 52 4 121 0 70 -3 185 -6
255 -7 71 -1 126 -4 124 -8 -3 -5 -112 -4 -243 0 -139 5 -245 5 -254 0 -8 -5
-78 -10 -155 -12 -77 -1 -143 -5 -147 -7 -10 -6 -11 30 -1 39 10 11 13 8 7 -6z
m486 -124 l0 -78 -85 0 -85 -1 0 78 0 78 85 0 85 0 0 -77z m324 29 c4 -21 9
-49 12 -64 l6 -28 -161 0 -161 0 0 43 c0 23 -3 52 -6 64 -6 22 -5 22 132 25
77 2 146 1 156 0 10 -3 19 -18 22 -40z m-514 -26 l0 -65 -52 -3 c-29 -2 -104
-2 -166 0 -102 3 -113 5 -107 20 3 9 9 38 12 65 l6 47 153 0 154 0 0 -64z
m727 -32 c-3 -3 -12 -4 -19 -1 -8 3 -5 6 6 6 11 1 17 -2 13 -5z m-1267 -13 c0
-18 -22 -71 -30 -71 -5 0 -3 15 5 34 8 18 11 36 8 40 -4 3 -1 6 5 6 7 0 12 -4
12 -9z m1347 -90 c23 -11 49 -31 58 -45 19 -28 32 -106 19 -106 -5 0 -9 18 -9
40 -1 75 -93 136 -170 113 -39 -12 -48 -7 -12 7 35 14 68 11 114 -9z m-1258 0
c8 -5 -4 -7 -32 -4 -36 4 -54 1 -84 -18 -30 -18 -35 -19 -23 -5 8 10 23 22 35
26 27 12 87 12 104 1z m-64 -45 c-26 -7 -47 -23 -62 -45 -13 -19 -23 -29 -23
-24 0 17 41 64 64 73 11 5 30 9 41 9 11 0 2 -6 -20 -13z m-90 -6 c4 -6 1 -9
-6 -8 -7 2 -18 -15 -26 -37 -13 -38 -13 -38 -8 -6 4 29 20 61 31 61 1 0 6 -5
9 -10z m160 0 c3 -6 -1 -7 -9 -4 -18 7 -21 14 -7 14 6 0 13 -4 16 -10z m187
-4 c4 3 632 7 756 4 6 0 12 -4 12 -10 0 -6 -155 -9 -410 -10 -360 0 -409 1
-404 15 4 11 11 12 24 5 9 -5 20 -7 22 -4z m37 -72 c2 -2 -17 -4 -42 -4 -26 0
-47 4 -47 9 0 8 79 3 89 -5z m415 7 c-9 -9 -34 -9 -40 0 -3 5 6 8 20 7 14 -1
23 -4 20 -7z m96 -1 c0 -5 -5 -10 -11 -10 -5 0 -7 5 -4 10 3 6 8 10 11 10 2 0
4 -4 4 -10z m73 -2 c-2 -5 -18 -8 -34 -8 -17 0 -28 3 -26 8 3 4 19 7 35 7 17
0 28 -3 25 -7z m140 -5 c-7 -2 -21 -2 -30 0 -10 3 -4 5 12 5 17 0 24 -2 18 -5z
m-390 -10 c-7 -2 -19 -2 -25 0 -7 3 -2 5 12 5 14 0 19 -2 13 -5z m-490 -47 c7
4 9 3 4 -1 -4 -5 -18 -9 -31 -10 -20 0 -22 2 -12 17 9 15 12 15 19 3 4 -9 14
-12 20 -9z m1521 -52 c3 -8 2 -12 -4 -9 -6 3 -10 10 -10 16 0 14 7 11 14 -7z
m-2049 -154 c3 -5 1 -10 -4 -10 -6 0 -11 5 -11 10 0 6 2 10 4 10 3 0 8 -4 11
-10z m958 -17 c3 -5 -89 -8 -203 -8 -114 0 -206 3 -203 8 2 4 94 7 203 7 109
0 201 -3 203 -7z m491 -2 c3 -5 -82 -8 -198 -7 -112 0 -202 4 -199 9 6 10 391
9 397 -2z m-1414 -55 c0 -3 -4 -8 -10 -11 -5 -3 -10 -1 -10 4 0 6 5 11 10 11
6 0 10 -2 10 -4z m-40 -66 c0 -5 -5 -10 -11 -10 -5 0 -7 5 -4 10 3 6 8 10 11
10 2 0 4 -4 4 -10z"/>
<path d="M2771 2741 c-17 -11 -7 -94 15 -116 8 -8 13 -16 12 -19 -2 -2 0 -7 4
-11 3 -4 5 6 3 22 -2 15 -5 52 -6 81 -2 54 -4 58 -28 43z"/>
<path d="M2676 2325 c-3 -8 -1 -15 4 -15 13 0 22 18 11 24 -5 3 -11 -1 -15 -9z"/>
<path d="M2637 2319 c7 -7 15 -10 18 -7 3 3 -2 9 -12 12 -14 6 -15 5 -6 -5z"/>
<path d="M2958 1225 c-3 -14 -1 -25 3 -25 5 0 9 11 9 25 0 14 -2 25 -4 25 -2
0 -6 -11 -8 -25z"/>
<path d="M2173 1193 c9 -2 23 -2 30 0 6 3 -1 5 -18 5 -16 0 -22 -2 -12 -5z"/>
<path d="M2278 1193 c7 -3 16 -2 19 1 4 3 -2 6 -13 5 -11 0 -14 -3 -6 -6z"/>
<path d="M2448 1193 c7 -3 16 -2 19 1 4 3 -2 6 -13 5 -11 0 -14 -3 -6 -6z"/>
<path d="M2498 1193 c6 -2 18 -2 25 0 6 3 1 5 -13 5 -14 0 -19 -2 -12 -5z"/>
<path d="M2558 1193 c7 -3 16 -2 19 1 4 3 -2 6 -13 5 -11 0 -14 -3 -6 -6z"/>
<path d="M2618 1193 c7 -3 16 -2 19 1 4 3 -2 6 -13 5 -11 0 -14 -3 -6 -6z"/>
<path d="M2728 1193 c28 -2 76 -2 105 0 28 2 5 3 -53 3 -58 0 -81 -1 -52 -3z"/>
<path d="M2345 1811 c-55 -25 -95 -68 -95 -100 0 -25 21 -51 73 -91 17 -12 18
-11 12 13 -9 35 18 47 57 24 15 -9 28 -12 28 -8 0 5 8 12 17 16 13 4 27 -3 47
-26 22 -25 30 -29 37 -18 5 8 9 17 9 21 0 18 39 28 65 16 19 -9 28 -9 37 0 15
15 45 16 53 2 3 -5 1 -19 -5 -30 -14 -27 -4 -25 37 6 47 36 65 74 50 104 -12
25 -83 73 -125 85 -21 6 -22 4 -16 -19 8 -32 -10 -56 -42 -56 -25 0 -44 26
-44 59 0 19 -2 20 -20 9 -17 -11 -22 -10 -30 2 -8 12 -10 10 -10 -8 0 -58 -49
-82 -84 -43 -14 15 -15 24 -6 40 13 26 7 26 -45 2z"/>
<path d="M1925 1419 c-18 -8 -17 -9 4 -5 21 4 23 2 19 -25 -3 -16 -1 -29 4
-29 10 0 11 57 1 63 -5 3 -17 0 -28 -4z"/>
<path d="M1872 1360 c0 -14 2 -19 5 -12 2 6 2 18 0 25 -3 6 -5 1 -5 -13z"/>
<path d="M3021 1574 c0 -11 3 -14 6 -6 3 7 2 16 -1 19 -3 4 -6 -2 -5 -13z"/>
<path d="M3031 1524 c0 -11 3 -14 6 -6 3 7 2 16 -1 19 -3 4 -6 -2 -5 -13z"/>
<path d="M2450 1320 l0 -60 60 0 60 0 0 60 0 60 -60 0 -60 0 0 -60z m110 0 l0
-50 -50 0 -50 0 0 43 c0 24 3 47 7 50 3 4 26 7 50 7 l43 0 0 -50z"/>
<path d="M2250 2719 c0 -11 -4 -17 -10 -14 -7 4 -9 -6 -7 -29 4 -36 17 -62 18
-35 0 8 2 33 5 57 3 23 3 42 0 42 -3 0 -6 -9 -6 -21z"/>
</g>
</svg>
